<svg width="33" height="32" viewBox="0 0 33 32" fill="none" xmlns="http://www.w3.org/2000/svg">
<g clip-path="url(#clip0_3_6668)">
<g clip-path="url(#clip1_3_6668)">
<g clip-path="url(#clip2_3_6668)">
<g clip-path="url(#clip3_3_6668)">
<path d="M11.1714 16.3351C11.5654 16.2535 11.9771 16.0748 12.3654 15.7944C13.482 14.9867 13.9776 13.6605 13.4712 12.8307C12.9206 11.9281 11.4144 11.9888 10.257 13.016C9.15019 13.9717 8.91406 14.9702 8.91406 16.0196C8.91406 16.7611 9.15123 18.0851 10.6 19.235C11.2841 18.7064 12.0995 18.2716 13.0252 17.9572L13.0375 17.9527C12.3262 17.6563 11.3991 17.0713 11.1714 16.3351ZM10.9928 13.7829C10.9928 13.4729 11.2399 13.2236 11.5445 13.2236C11.8489 13.2236 12.0962 13.474 12.0962 13.7841C12.0962 14.0941 11.8489 14.3435 11.5445 14.3435C11.2399 14.3435 10.9928 14.093 10.9928 13.7829Z" fill="#E74040"/>
</g>
</g>
<g clip-path="url(#clip4_3_6668)">
<g clip-path="url(#clip5_3_6668)">
<path d="M24.1055 16.0203C24.1022 14.9698 23.8671 13.9713 22.7594 13.0157C21.6029 11.9895 20.0957 11.9266 19.545 12.8304C19.0396 13.6601 19.534 14.9864 20.6506 15.7941C21.039 16.0744 21.4507 16.2531 21.8445 16.3347C21.7077 16.7772 21.2917 17.2274 20.6573 17.607C19.7849 18.1276 19.3137 18.192 13.7322 20.0455C11.6666 20.7473 10.4375 22.1419 10.4375 23.7761C10.4375 24.9402 11.0322 25.8384 11.8586 26.4961C12.3783 25.9609 13.0272 25.4964 13.7853 25.1245C12.9125 24.6832 12.6432 24.3488 12.6432 23.7761C12.6432 22.8309 14.5325 22.2905 15.404 22.003V24.3952L17.6109 23.4109V22.0041C18.4838 22.2932 20.3683 22.8329 20.3683 23.7761C20.3683 25.3454 15.8748 26.2708 13.9629 27.5895C13.035 28.2328 12.5361 29.0505 12.5361 30.0115C12.5361 30.5632 12.6002 31.2474 13.5689 31.9271C13.8436 32.1465 14.2252 31.826 14.0468 31.5176C13.4067 30.2366 14.0864 29.5966 15.4062 29.0427V30.8942C15.4062 31.5033 15.9005 31.9976 16.5096 31.9976C17.1187 31.9976 17.613 31.5033 17.613 30.8942V29.0438C18.8808 29.5756 19.6787 30.327 18.9691 31.5176C18.7932 31.82 19.1677 32.1492 19.4458 31.9271C20.3837 31.2164 20.4576 30.6073 20.4576 30.0259C20.4576 29.1311 19.9678 28.2627 19.0386 27.5973C20.9167 26.9187 22.5784 25.7766 22.5784 23.7783C22.5784 22.398 21.7013 21.1886 20.1851 20.4229C20.8934 20.168 21.2498 19.997 21.7231 19.7145C23.7965 18.4753 24.1055 16.8677 24.1055 16.0203ZM21.4728 14.3431C21.1681 14.3431 20.9211 14.0926 20.9211 13.7825C20.9211 13.4725 21.1681 13.222 21.4728 13.222C21.7772 13.222 22.0245 13.4725 22.0245 13.7825C22.0245 14.0926 21.7773 14.3431 21.4728 14.3431Z" fill="#E74040"/>
</g>
</g>
<g clip-path="url(#clip6_3_6668)">
<g clip-path="url(#clip7_3_6668)">
<path d="M31.9476 2.20896H24.3908C22.9084 2.20896 21.796 2.86425 20.839 3.82132C19.7993 4.86101 19.2587 7.17218 17.6032 7.17218V4.10759C18.2601 3.72533 18.7066 3.0217 18.7066 2.20683C18.7066 0.988037 17.7186 0 16.4998 0C15.2809 0 14.293 0.988037 14.293 2.20683C14.293 3.02163 14.7394 3.72526 15.3964 4.10759V17.2579C16.0774 17.0406 16.8248 16.8012 17.6032 16.5513V11.0242C18.0819 10.784 18.4682 10.3957 18.7051 9.91506C19.0889 10.571 19.8185 11.0363 20.6318 11.0363C21.4567 11.0363 22.1673 10.5783 22.5459 9.90802C23.8386 11.2007 26.2413 11.2256 27.5339 9.93299L25.6588 8.05788L26.519 8.41421C28.208 9.11384 30.1444 8.31173 30.8441 6.62268L28.1803 5.51927C30.7609 5.5192 31.9476 3.89987 31.9476 2.20896Z" fill="#E74040"/>
</g>
</g>
<g clip-path="url(#clip8_3_6668)">
<g clip-path="url(#clip9_3_6668)">
<path d="M12.1594 3.82135C11.2024 2.86427 10.0899 2.20898 8.6075 2.20898H1.05078C1.05078 3.89983 2.23743 5.51922 4.81804 5.51922L2.15419 6.62263C2.8539 8.31168 4.79031 9.11373 6.47936 8.41416L7.33954 8.05783L5.46443 9.93294C6.75708 11.2257 9.15976 11.2008 10.4524 9.90798C10.831 10.5783 11.5417 11.0363 12.3666 11.0363C12.3747 11.0363 12.3828 11.0362 12.391 11.0361C13.4691 11.0239 14.2932 10.05 14.2932 8.9718V6.75187C13.4236 6.03831 12.9254 4.58739 12.1594 3.82135Z" fill="#E74040"/>
</g>
</g>
</g>
</g>
<defs>
<clipPath id="clip0_3_6668">
<rect width="32" height="32" fill="white" transform="translate(0.5)"/>
</clipPath>
<clipPath id="clip1_3_6668">
<rect width="32" height="32" fill="white" transform="translate(0.5)"/>
</clipPath>
<clipPath id="clip2_3_6668">
<rect width="4.75568" height="7.03818" fill="white" transform="translate(8.91406 12.1968)"/>
</clipPath>
<clipPath id="clip3_3_6668">
<rect width="4.75568" height="7.03818" fill="white" transform="translate(8.91406 12.1968)"/>
</clipPath>
<clipPath id="clip4_3_6668">
<rect width="13.668" height="19.8036" fill="white" transform="translate(10.4375 12.1963)"/>
</clipPath>
<clipPath id="clip5_3_6668">
<rect width="13.668" height="19.8036" fill="white" transform="translate(10.4375 12.1963)"/>
</clipPath>
<clipPath id="clip6_3_6668">
<rect width="17.6546" height="17.2579" fill="white" transform="translate(14.293)"/>
</clipPath>
<clipPath id="clip7_3_6668">
<rect width="17.6546" height="17.2579" fill="white" transform="translate(14.293)"/>
</clipPath>
<clipPath id="clip8_3_6668">
<rect width="13.2425" height="8.8273" fill="white" transform="translate(1.05078 2.20898)"/>
</clipPath>
<clipPath id="clip9_3_6668">
<rect width="13.2425" height="8.8273" fill="white" transform="translate(1.05078 2.20898)"/>
</clipPath>
</defs>
</svg>
