<svg width="33" height="32" viewBox="0 0 33 32" fill="none" xmlns="http://www.w3.org/2000/svg">
<g clip-path="url(#clip0_3_6663)">
<g clip-path="url(#clip1_3_6663)">
<path d="M6.84708 31.9998H26.1503C27.299 31.9998 28.2552 31.1212 28.2552 30.0416V6.62831C28.2552 5.54842 27.299 4.66064 26.1503 4.66064H22.9683V6.44842C22.9729 6.75874 22.7281 7.01554 22.418 7.02586H10.5416C10.2253 7.01825 9.9699 6.76472 9.95958 6.44842V4.66064H6.84708C5.69844 4.66064 4.74219 5.54842 4.74219 6.62831V30.0416C4.74219 31.1212 5.69844 31.9998 6.84708 31.9998ZM11.1422 14.0519C11.1422 13.7446 11.3914 13.4954 11.6987 13.4954H14.5509V10.6433C14.5509 10.3359 14.8001 10.0867 15.1074 10.0867H17.89C18.1973 10.0867 18.4465 10.3359 18.4465 10.6433V13.4954H21.2987C21.606 13.4954 21.8552 13.7446 21.8552 14.0519V16.8346C21.8552 17.1419 21.606 17.3911 21.2987 17.3911H18.4465V20.2433C18.4465 20.5506 18.1973 20.7998 17.89 20.7998H15.1074C14.8001 20.7998 14.5509 20.5506 14.5509 20.2433V17.3911H11.6987C11.3914 17.3911 11.1422 17.1419 11.1422 16.8346V14.0519ZM11.3688 23.6519H21.6286C21.9362 23.6519 22.1851 23.9011 22.1851 24.2085C22.1851 24.5158 21.9362 24.765 21.6286 24.765H11.3688C11.0612 24.765 10.8123 24.5158 10.8123 24.2085C10.8123 23.9011 11.0612 23.6519 11.3688 23.6519ZM9.28186 26.4346H23.7156C24.0232 26.4346 24.2721 26.6837 24.2721 26.9911C24.2721 27.2984 24.0232 27.5476 23.7156 27.5476H9.28186C8.97425 27.5476 8.72534 27.2984 8.72534 26.9911C8.72534 26.6837 8.97425 26.4346 9.28186 26.4346Z" fill="#E74040"/>
<path d="M21.8568 2.15652H19.2525C18.9905 2.15625 18.7639 1.97337 18.7087 1.71712C18.4935 0.722556 17.5489 1.23676e-06 16.4625 1.23676e-06H16.4557C15.3984 -0.00108572 14.4748 0.714403 14.2117 1.73832C14.1484 1.98424 13.9267 2.15625 13.6726 2.15652H11.0742V5.91304H21.8568V2.15652Z" fill="#E74040"/>
<path d="M15.6665 16.835V19.6872H17.3361V16.835C17.3361 16.5276 17.5853 16.2785 17.8926 16.2785H20.7448V14.6089H17.8926C17.5853 14.6089 17.3361 14.3597 17.3361 14.0524V11.2002H15.6665V14.0524C15.6665 14.3597 15.4173 14.6089 15.11 14.6089H12.2578V16.2785H15.11C15.4173 16.2785 15.6665 16.5276 15.6665 16.835Z" fill="#E74040"/>
</g>
</g>
<defs>
<clipPath id="clip0_3_6663">
<rect width="32" height="32" fill="white" transform="translate(0.5)"/>
</clipPath>
<clipPath id="clip1_3_6663">
<rect width="32" height="32" fill="white" transform="translate(0.5)"/>
</clipPath>
</defs>
</svg>
