<svg width="33" height="32" viewBox="0 0 33 32" fill="none" xmlns="http://www.w3.org/2000/svg">
<g clip-path="url(#clip0_3_6659)">
<g clip-path="url(#clip1_3_6659)">
<path d="M10.75 20.5884V23.5C10.75 28.1527 14.5348 32 19.1875 32C23.8402 32 27.625 28.1527 27.625 23.5V22.4676C29.762 22.0321 31.375 20.1385 31.375 17.875C31.375 15.2904 29.2721 13.1875 26.6875 13.1875C24.103 13.1875 22 15.2904 22 17.875C22 20.1385 23.6131 22.0321 25.75 22.4676V23.5C25.75 27.1182 22.8057 30.125 19.1875 30.125C15.5693 30.125 12.625 27.1182 12.625 23.5V20.5896C16.4511 19.8877 20.8667 15.1368 21.6311 10.6176C22.1323 7.64925 20.8938 5.273 18.25 4.08444V2.8125C18.25 1.26163 16.9884 0 15.4375 0C13.8866 0 12.625 1.26163 12.625 2.8125C12.625 4.36337 13.8866 5.625 15.4375 5.625H17.102C19.2591 6.42369 20.1658 8.03569 19.7817 10.3054C19.1234 14.201 14.7362 18.8125 11.6875 18.8125C8.27295 18.8125 3.52708 13.3901 3.49833 9.375C3.48551 7.58531 4.4232 6.30206 6.24789 5.625H7.93751C9.48839 5.625 10.75 4.36337 10.75 2.8125C10.75 1.26163 9.48845 0 7.93751 0C6.38658 0 5.12501 1.26163 5.12501 2.8125V4.074C2.86983 5.08387 1.62014 6.97625 1.62501 9.375C1.63458 14.0759 6.50508 19.802 10.75 20.5884ZM25.75 16.9375H27.625V18.8125H25.75V16.9375Z" fill="#E74040"/>
</g>
</g>
<defs>
<clipPath id="clip0_3_6659">
<rect width="32" height="32" fill="white" transform="translate(0.5)"/>
</clipPath>
<clipPath id="clip1_3_6659">
<rect width="29.75" height="32" fill="white" transform="translate(1.625)"/>
</clipPath>
</defs>
</svg>
