<svg width="33" height="32" viewBox="0 0 33 32" fill="none" xmlns="http://www.w3.org/2000/svg">
<g clip-path="url(#clip0_3_6654)">
<g clip-path="url(#clip1_3_6654)">
<g clip-path="url(#clip2_3_6654)">
<path d="M16.4909 4.218C9.51587 -1.88266 0.64723 3.47755 0.501803 10.7442C0.464744 12.5961 0.999328 14.4 2.06343 16.0631H8.96066L10.1874 14.0184C10.5437 13.4247 11.4057 13.4056 11.7821 13.9974L14.3705 18.0648L18.1435 10.0997C18.4726 9.40473 19.4532 9.38267 19.8161 10.0566L23.0503 16.0631H30.9184C36.7468 6.95379 25.2279 -3.42361 16.4909 4.218Z" fill="#E74040"/>
<path d="M21.6656 17.4448L19.0448 12.5776L15.3387 20.4014C15.0234 21.0671 14.0961 21.1249 13.7007 20.5034L11.0152 16.2835L10.2957 17.4827C10.1263 17.7651 9.82121 17.9378 9.49192 17.9378H3.54688C3.73324 18.1328 2.74 17.1416 15.8302 30.164C16.1958 30.5278 16.7868 30.5278 17.1525 30.164C30.0412 17.342 29.2498 18.1325 29.4358 17.9378H22.4909C22.146 17.9379 21.829 17.7485 21.6656 17.4448Z" fill="#E74040"/>
</g>
</g>
</g>
<defs>
<clipPath id="clip0_3_6654">
<rect width="32" height="32" fill="white" transform="translate(0.5)"/>
</clipPath>
<clipPath id="clip1_3_6654">
<rect width="32" height="32" fill="white" transform="translate(0.5)"/>
</clipPath>
<clipPath id="clip2_3_6654">
<rect width="32" height="28.8744" fill="white" transform="translate(0.5 1.5625)"/>
</clipPath>
</defs>
</svg>
